<?xml version="1.0" encoding="utf-8"?>
<!-- Generator: Adobe Illustrator 25.2.0, SVG Export Plug-In . SVG Version: 6.00 Build 0)  -->
<svg version="1.1" id="Слой_1" xmlns="http://www.w3.org/2000/svg" xmlns:xlink="http://www.w3.org/1999/xlink" x="0px" y="0px"
	 viewBox="0 0 100 100" style="enable-background:new 0 0 100 100;" xml:space="preserve">
<style type="text/css">
	.st0{fill:#E17D9F;}
</style>
<g>
	<path class="st0" d="M40.5,85.4v-28L18.9,24c-1.9-3-3.2-5.4-4-7c-0.8-1.7-1.2-3.2-1.2-4.4c0-2,0.8-3.8,2.4-5.3
		C17.7,5.7,19.7,5,22,5c2.4,0,4.3,0.7,5.6,2.1c1.3,1.4,3.2,4.1,5.7,8.3l16.5,26.8l16.7-26.8c1-1.6,1.8-3,2.5-4.2
		c0.7-1.1,1.4-2.2,2.3-3.2C72,7.1,73,6.3,74,5.8C75,5.3,76.2,5,77.6,5c2.2,0,4.1,0.7,5.6,2.2c1.5,1.5,2.3,3.2,2.3,5.1
		c0,1.6-0.4,3.1-1.1,4.7c-0.8,1.6-2.1,3.7-3.9,6.5L58.4,57.4v28c0,3.7-0.8,6.4-2.5,8.2c-1.7,1.8-3.8,2.7-6.4,2.7
		c-2.6,0-4.8-0.9-6.4-2.7C41.3,91.8,40.5,89.1,40.5,85.4z"/>
</g>
</svg>
